<!-- Created with Inkscape (http://www.inkscape.org/) -->
<svg xmlns:rdf="http://www.w3.org/1999/02/22-rdf-syntax-ns#" xmlns="http://www.w3.org/2000/svg" height="64" width="64" version="1.1" xmlns:cc="http://creativecommons.org/ns#" xmlns:xlink="http://www.w3.org/1999/xlink" xmlns:dc="http://purl.org/dc/elements/1.1/">
<metadata>
<rdf:RDF>
<cc:Work rdf:about="">
<dc:format>image/svg+xml</dc:format>
<dc:type rdf:resource="http://purl.org/dc/dcmitype/StillImage"/>
<dc:title/>
</cc:Work>
</rdf:RDF>
</metadata>
<defs>
<linearGradient id="linearGradient3771" y2="160" gradientUnits="userSpaceOnUse" x2="220" gradientTransform="matrix(0.14382022,0,0,0.14382046,5.0838221e-5,-6e-5)" y1="285" x1="220">
<stop stop-color="#d0d0d0" offset="0"/>
<stop stop-color="#FFF" offset="1"/>
</linearGradient>
</defs>
<rect height="64" width="64" y="-0.000061" x="0.0000508" fill="#5b81a8"/>
<path stroke-linejoin="miter" d="m12.7,21.8c-0.556,0-0.914,0.21-1.07,0.55-0.159,0.34-0.118,0.81,0.125,1.33,4.32,9.24,10.7,21.9,21.7,20.2,1.63-0.252,1.93-0.609,1.97-1.99,0.0224-0.705,0.144-3.32,1.78-3.36,1.63-0.0362,4.47,5.35,6.73,5.35,3.03,0,4.57,0.0111,7.04,0.0111,0.821,0,2.01-0.677,1.19-2.3-1.61-3.2-6.51-6.3-6.51-7.83,0-1.89,10.5-12,5.51-12-0.924,0-4.85,0.0264-7.2,0.0264-0.92,0-1.3,0.62-1.52,1.3-0.673,2.12-4.28,8.91-5.92,8.91-2.24,0-0.403-8.53-1.26-10.3-0.71-1.5-10.6-1.53-10.2,0.671,2.2,0.512,2.4,0.958,2.57,4.34,0.126,2.4-0.101,5.32-1.04,5.44-1.62,0.204-4.47-4.79-6.29-9.06-0.251-0.589-0.787-1.29-1.71-1.29-1.02-0.005-4.86,0.001-5.89,0.001z" stroke="#3a5c78" stroke-linecap="butt" stroke-width="0.14382033px" fill="url(#linearGradient3771)"/>
</svg>
