<!-- Created with Inkscape (http://www.inkscape.org/) -->
<svg xmlns:rdf="http://www.w3.org/1999/02/22-rdf-syntax-ns#" xmlns="http://www.w3.org/2000/svg" height="64" width="64" version="1.0" xmlns:cc="http://creativecommons.org/ns#" xmlns:dc="http://purl.org/dc/elements/1.1/">
<metadata>
<rdf:RDF>
<cc:Work rdf:about="">
<dc:format>image/svg+xml</dc:format>
<dc:type rdf:resource="http://purl.org/dc/dcmitype/StillImage"/>
<dc:title/>
<dc:creator>
<cc:Agent>
<dc:title>User:ZyMOS</dc:title>
</cc:Agent>
</dc:creator>
<dc:subject>
<rdf:Bag/>
</dc:subject>
<cc:license rdf:resource="http://creativecommons.org/licenses/publicdomain/"/>
<dc:description/>
<dc:contributor>
<cc:Agent>
<dc:title/>
</cc:Agent>
</dc:contributor>
<dc:publisher>
<cc:Agent>
<dc:title>Open Icon Library</dc:title>
</cc:Agent>
</dc:publisher>
</cc:Work>
<cc:License rdf:about="http://creativecommons.org/licenses/publicdomain/">
<cc:permits rdf:resource="http://creativecommons.org/ns#Reproduction"/>
<cc:permits rdf:resource="http://creativecommons.org/ns#Distribution"/>
<cc:permits rdf:resource="http://creativecommons.org/ns#DerivativeWorks"/>
</cc:License>
</rdf:RDF>
</metadata>
<g transform="translate(-373.64,-510.34)">
<g transform="matrix(0.25,0,0,0.25,280.14,430.84)">
<rect transform="scale(-1,1)" fill-rule="evenodd" rx="0" ry="0" height="256" width="256" y="318" x="-630" fill="#640e6b"/>
<path d="m405,394,0,9.06,26.2,2.38,49.5,59.6,1.51,30.8c-1.32,5.36-5.56,3.43-8.58,4.55l-18.3,0.15,0.17,7.9,81.5-0.68v-7.7l-24-0.18c-3,0.49-2.75-1.74-3.03-3.53l-1.51-29.3c0.37-2.35,0.87-4.71,4.04-7.07l47.5-37.9,22.2-4.04,3.5-7.01h-73.9l1.19,7.52,21.2,2.02c1.27,1.02,3.78,0.95,1.01,5.55l-30.8,26.8c-1.63,0.96-2.89,0.43-4.05-0.5l-34.3-45c-2.54-3.59-0.1-4.25,3.03-4.55l22.2-1.01v-7.58l-86.3-0.32z" fill="#FFF"/>
<path fill="#FFF" d="m556,493,9.82,6.07-6.6,11.6-10-6.25,6.78-11.4z"/>
<path fill="#FFF" d="m561,482,8.33,5.3,34.4-56.3-19.4-11.1-23.2,62.1z"/>
</g>
</g>
</svg>
