<!-- Created with Inkscape (http://www.inkscape.org/) -->
<svg xmlns:rdf="http://www.w3.org/1999/02/22-rdf-syntax-ns#" xmlns="http://www.w3.org/2000/svg" height="64" width="64" version="1.1" xmlns:cc="http://creativecommons.org/ns#" xmlns:dc="http://purl.org/dc/elements/1.1/">
<metadata>
<rdf:RDF>
<cc:Work rdf:about="">
<dc:format>image/svg+xml</dc:format>
<dc:type rdf:resource="http://purl.org/dc/dcmitype/StillImage"/>
<dc:title/>
</cc:Work>
</rdf:RDF>
</metadata>
<rect height="64" width="64" y="-1.36E-8" x="0" fill="#171515"/>
<path fill="#FFF" d="m24.1,59.9-0.0019-8.56c-1.1,0.4-6.2,1.2-9.4-0.4-3.4-1.8-3.7-3.6-4.83-5.7-1.8-3.1-4.71-4.1-4.85-4.7-0.228-0.876,1.82-1.32,4.14-0.324s3.3,2.63,4.11,3.74c0.969,1.31,3.23,3.37,6.75,3.28,2.38-0.0594,4.2-0.898,4.2-0.898,0.224-1.73,0.904-3.4,2.5-4.92-21.5-0.6-20.1-23-13.8-27.5-0.9-1.3-1.6-6.03,0.4-9.68,3.2-0.6,8.5,2.12,10.7,3.68,6.4-1.53,12.9-1.7,19.6,0.06,3.6-2.12,7.3-3.77,10.7-3.96,2.18,3.94,1.32,8,0.608,9.79,6.07,5,7.97,26.2-13.7,27.7,1.39,1.14,2.39,3.19,2.39,4.82,0,4.73-0.0437,8.71-0.0437,13.6z"/>
<path fill="#171515" d="m9.2,40.8c0.56,0.288,0.237,0.75-0.329,0.497s-0.231-0.785,0.329-0.497z"/>
<path fill="#171515" d="m11,42.2c0.57,0.495-0.0098,1.07-0.596,0.538-0.587-0.528,0.0261-1.03,0.596-0.538z"/>
<path fill="#171515" d="m12.6,44.1c0.566,0.63-0.139,1.09-0.692,0.569-0.553-0.526,0.126-1.2,0.692-0.569z"/>
<path fill="#171515" d="m14.4,46.1c0.669,0.623,0.137,1.31-0.547,0.784-0.684-0.528-0.121-1.41,0.547-0.784z"/>
<path fill="#171515" d="m17,47.5c0.942,0.238,0.811,1.08-0.225,0.866-1.04-0.21-0.717-1.1,0.225-0.866z"/>
<path fill="#171515" d="m20.1,47.9c1.12-0.0638,1.39,0.875,0.205,0.92-1.18,0.0456-1.32-0.856-0.205-0.92z"/>
<path fill="#171515" d="m22.9,47.5c1.32-0.203,1.58,0.793,0.391,1.02-1.19,0.228-1.72-0.818-0.391-1.02z"/>
</svg>
