<!-- Created with Inkscape (http://www.inkscape.org/) -->
<svg xmlns:rdf="http://www.w3.org/1999/02/22-rdf-syntax-ns#" xmlns="http://www.w3.org/2000/svg" height="64" width="64" version="1.1" xmlns:cc="http://creativecommons.org/ns#" xmlns:dc="http://purl.org/dc/elements/1.1/">
<metadata>
<rdf:RDF>
<cc:Work rdf:about="">
<dc:format>image/svg+xml</dc:format>
<dc:type rdf:resource="http://purl.org/dc/dcmitype/StillImage"/>
<dc:title/>
</cc:Work>
</rdf:RDF>
</metadata>
<g transform="matrix(0.16931217,0,0,0.16931217,0,-10e-6)">
<rect height="378" width="378" y="-0.0000128" x="0" fill="#1d70b6"/>
<path d="M39.8,74.4,40.2,300l171,28.6v-283z" fill="#FFF"/>
<path stroke-linejoin="miter" d="m124,147c-22.6,0.196-31,20.6-31,41.7s7.98,42.4,31.3,42.4,31.3-21.2,31.3-42.3c0-22.1-9.06-42-31.6-41.8z" stroke="#1d70b6" stroke-linecap="butt" stroke-miterlimit="4" stroke-dasharray="none" stroke-width="13.5" fill="none"/>
<path d="m219,126,107,0.125-0.0625,114,7.96-0.079c1.27-0.0126,2.45-0.84,2.41-2.61-0.0754-4.06-0.0174-117,0-119,0.0214-2.24-1.75-3.69-4-3.69h-113z" fill="#FFF"/>
<path d="m219,133,0.25,39.8,25.8,20.4,72.9-55.8c0.491-0.376-1.71-4.42-4.72-4.42z" fill="#FFF"/>
<path d="M218,189,219,271h98.5v-116l-67.7,52.3c-1.53,1.18-7.01,1.27-8.47,0.125z" fill="#FFF"/>
</g>
</svg>
