<!-- Created with Inkscape (http://www.inkscape.org/) -->
<svg xmlns:rdf="http://www.w3.org/1999/02/22-rdf-syntax-ns#" xmlns="http://www.w3.org/2000/svg" height="64" width="64" version="1.1" xmlns:cc="http://creativecommons.org/ns#" xmlns:dc="http://purl.org/dc/elements/1.1/">
<metadata>
<rdf:RDF>
<cc:Work rdf:about="">
<dc:format>image/svg+xml</dc:format>
<dc:type rdf:resource="http://purl.org/dc/dcmitype/StillImage"/>
<dc:title/>
</cc:Work>
</rdf:RDF>
</metadata>
<rect height="64" width="64" y="3.61E-15" x="0" fill="#2da9e2"/>
<path fill="#FFF" d="M1.21,52.1c26.8,15.6,56-3.5,55.3-31.9,2.56-1.77,4.58-4.08,6.39-6.61-2.25,1.29-4.8,1.6-7.27,2.17,1.89-1.55,3.8-2.66,5.53-7.02-2.7,1.32-4.7,2.22-8,3.02-9-9.76-24.6-0.7-21.6,11.4-8.1-0.3-17-2.9-26-13.2-0.647,0.982-5.22,10.5,3.89,16.8-1.42,0.0282-2.71-0.0594-5.69-1.55-0.246,9.46,8.76,12.3,9.98,12.6-1.83,0.426-3.67,0.302-5.5,0.206,1.87,5.46,6.18,8.47,11.8,8.73-4.53,3.28-10.1,6.1-18.8,5.21z"/>
</svg>
